<?xml version="1.0" encoding="UTF-8"?>
<svg xmlns="http://www.w3.org/2000/svg" id="Layer_2"
     viewBox="0 0 60.21 64.27">
  <metadata></metadata>
  <defs>
    <style>
      .cls-1{fill:#373755;}.cls-2{fill:#e86953;}.cls-3{fill:url(#linear-gradient-5);}.cls-4{fill:url(#linear-gradient-6);}.cls-5{fill:url(#linear-gradient-4);}.cls-6{fill:url(#linear-gradient-3);}.cls-7{fill:url(#linear-gradient-2);}.cls-8{fill:#b4c9d6;}.cls-9{fill:url(#linear-gradient);}.cls-10{fill:#2c283b;}.cls-11{fill:#eb9742;}.cls-12{fill:#221f45;}.cls-13{fill:#5e6d8c;}.cls-14{fill:#859db4;}.cls-15{fill:#f6e04f;}.cls-16{fill:#49516d;}.cls-17{fill:#707f9c;}.cls-18{fill:#fbfbfb;}.cls-19{fill:#686d83;}.cls-20{fill:#ecce4d;}.cls-21{fill:#7b8ca6;}.cls-22{fill:#676c82;}
    </style>
    <linearGradient id="linear-gradient" x1="-954.92" y1="843.69" x2="-1046.65" y2="844.55"
                    gradientTransform="translate(182.91 -70.26) scale(.14)" gradientUnits="userSpaceOnUse">
      <stop offset="0" stop-color="#e7863f"></stop>
      <stop offset="1" stop-color="#eca143"></stop>
    </linearGradient>
    <linearGradient id="linear-gradient-2" x1="-1137.07" y1="819.87" x2="-1158.02" y2="853.23"
                    gradientTransform="translate(182.91 -70.26) scale(.14)" gradientUnits="userSpaceOnUse">
      <stop offset="0" stop-color="#e45f51"></stop>
      <stop offset="1" stop-color="#c75c54"></stop>
    </linearGradient>
    <linearGradient id="linear-gradient-3" x1="-1178.77" y1="796" x2="-1198.49" y2="820.88"
                    gradientTransform="translate(182.91 -70.26) scale(.14)" gradientUnits="userSpaceOnUse">
      <stop offset="0" stop-color="#d4c46a"></stop>
      <stop offset="1" stop-color="#cbb19c"></stop>
    </linearGradient>
    <linearGradient id="linear-gradient-4" x1="-1162.23" y1="793.74" x2="-1187.16" y2="819.53"
                    gradientTransform="translate(182.91 -70.26) scale(.14)" gradientUnits="userSpaceOnUse">
      <stop offset="0" stop-color="#ee9143"></stop>
      <stop offset="1" stop-color="#e87a4e"></stop>
    </linearGradient>
    <linearGradient id="linear-gradient-5" x1="-1088.27" y1="865.41" x2="-1115.17" y2="890.01"
                    gradientTransform="translate(182.91 -70.26) scale(.14)" gradientUnits="userSpaceOnUse">
      <stop offset="0" stop-color="#d84e49"></stop>
      <stop offset="1" stop-color="#965f64"></stop>
    </linearGradient>
    <linearGradient id="linear-gradient-6" x1="-1095.47" y1="880.77" x2="-1063.23" y2="916.63"
                    gradientTransform="translate(182.91 -70.26) scale(.14)" gradientUnits="userSpaceOnUse">
      <stop offset="0" stop-color="#c44945"></stop>
      <stop offset="1" stop-color="#f14d4a"></stop>
    </linearGradient>
  </defs>
  <g id="Layer_1-2">
    <g id="Generative_Object">
      <path class="cls-1"
            d="M59.62,42.11c.01-.34-.09,0-.47.08-.66.85-6.05,5.16-6.22,5.54-.02.05.01.19,0,.3-3.24,2.89-2.48,2.69-.68-1.01.13-.27.35-.54.51-.8l-5.41-5.45-.13-.08c-2.15,1.57-4.15,3.43-6.3,4.99-.03.02-.14.06-.17.08.02-.02-.13-.11.3-.51.97-.91,4.93-3.72,6.3-4.74l5.41,5.29,1.61-4.48v-.42c-.8-1.29-2.33-5.48-2.88-6.22.29-.39-.02-.27-.42-1.18,2.85,2.9,6.16,5.37,9.13,8.16,0,.07-.47.35-.59.47Z"></path>
      <path class="cls-1"
            d="M8.88,33.91l-3.3,6.98c-.06.44,1.56,4.5,1.86,5.2.08.18.18.34.25.51.68,1.53,1.68,3.15,1.69,3.34,0,.11-.01.15-.13.13L0,41.56c1.13-1.15,8.47-7.25,8.79-7.74.1,0,.07.06.08.08Z"></path>
      <path class="cls-14"
            d="M47.61,23.42c-.16.38-.18.81-.34,1.18-.34-.83-.41-1.55-.51-2.45.3,0,.76-.52.85-.76.33.32-.03,1.5,0,2.03Z"></path>
      <path class="cls-21"
            d="M12.6,21.9c.16.17.48.34.68.17-.06.52-.27,1.66-.42,2.11-.31-.3-.47-.73-.68-1.1.35-.42-.08-1.22.42-1.18Z"></path>
      <path class="cls-18"
            d="M20.8,24.86c.05.11.48.87.55.85-.76-2.08.03-.42,2.45.93l.13.21c-.97.85.5-.31,2.11-.72-.66.59-1.43,1.08-2.07,1.69-.15.14-1.29,1.26-.93,1.18,1.07-1.28,2.51-2.09,3.85-3.04,1.4-.14,2,.01,3.17.85,2.17-1.62,3.36-.72,5.24.68.61.45,2.38,1.95.76.42-.83-.78-2.58-1.94-1.65-1.61.04.11.08.08.08.08.25.24,1.47.56,1.9.85.03-.26-.47-.22-.34-.51.07-.16,2.52-1.62,2.83-1.99-1.14,2.02.77.3.63-1.73.92.75,3.38,2.09,2.83,2.54-.4.21-2.89,3.65-3.81,4.19l.38,1.65c-1.14-.94-4.62-4.59-5.75-4.9-1.68-.47-2.87.92-3.3.85-3.08-3.01-6.2,2.01-8.79,4.06-.13-.05.37-1.25.3-1.56-.07-.27-3.2-3.34-3.72-4.27-.05-.09-.09-.15-.17-.21.89-.93,2.03-1.57,3-2.41-.08,1.06-.12,1.07.3,1.95Z"></path>
      <path class="cls-18"
            d="M12.77,40.76c-.13,0-.07.15-.08.17-.75.95-4.13,3.83-5.24,5.16-.3-.7-1.92-4.76-1.86-5.2l3.3-6.98c1.15,2.36,2.54,4.6,3.89,6.85Z"></path>
      <path class="cls-16"
            d="M51.5,34.67c.54.73,2.07,4.93,2.88,6.22v.42l-1.61,4.48-5.41-5.29c1.35-2.02,2.55-4.23,3.93-6.17.04.14.13.23.21.34Z"></path>
      <path class="cls-21"
            d="M17.34,25.54l-1.18,6.38,2.58.21c.3.25.04.96.04,1.01l-3.72,1.52c-.28-1.1-.18-2.26-.34-3.38-.13-.96-.65-3.68-1.18-4.4-.09-.12-.24-.16-.34-.25l4.14-1.1Z"></path>
      <path class="cls-16" d="M18.77,33.15c.06,2.02,0,4.06-.04,6.09-1.13-1.59-2.48-3.02-3.68-4.57l3.72-1.52Z"></path>
      <path class="cls-8"
            d="M17.42,25.45l-.08.08-4.14,1.1s-.24-.15-.25-.17c-.01-.01-.21-.04-.17-.3.9-1.12,2.59-3.62,3.38-4.44.47-.32.89,2.65,1.27,3.72Z"></path>
      <path class="cls-13" d="M14.71,31.29l-1.61,1.73.42-6.13c.54.71,1.05,3.44,1.18,4.4Z"></path>
      <path class="cls-14"
            d="M46.77,26.55c-.14.13-.32.29-.42.42-.01.01-.12-.08-.25.21l-.85,3.97c1.01.63,1.3,2.29,1.52.8,0,.18.1,1.23.04,1.27-2.45-3.27-1.25-1.65-1.73.8-.06.46-.2.54-.25.63-.32.02,0-.13-.13-.25-.2-.19-2.91-1.26-3.51-1.27.03-.47-.1-.94.13-1.1l2.49-.3-1.1-6.3c.36,0,3.06,1,4.06,1.1Z"></path>
      <path class="cls-17"
            d="M44.82,34.67c-.23.47-2.94,3.51-3.59,4.4,0-1.96-.16-3.96-.04-5.92.59,0,3.31,1.08,3.51,1.27.13.13-.19.28.13.25Z"></path>
      <path class="cls-8"
            d="M43.81,21.73c.41.45,3.41,4.24,3.38,4.52,0,.01-.14.17-.17.21-.07.09-.24.08-.25.08-1-.1-3.69-1.1-4.06-1.1-.03,0-.06,0-.08,0,.25-1.11.84-4.37,1.18-3.72Z"></path>
      <path class="cls-21"
            d="M46.34,26.98c.1,1.66.34,3.32.42,4.99-.23,1.49-.51-.17-1.52-.8l.85-3.97c.14-.29.24-.2.25-.21Z"></path>
      <path class="cls-9"
            d="M46.93,50.4c.25.54-.05.31-.17.76-2.33,1.76-4.55,3.62-6.85,5.41-.01-.08.04-.3-.04-.34-.43-.18-8.12.3-9.39.17l.21.25s-.17-.01-.42-.17c0,0-.08-.16-.08-.17.99-.87,1.85-1.88,2.79-2.79,2.46-2.4,4.83-4.86,7.27-7.27.03-.03.06-.06.08-.08.14-.14.28-.29.42-.42.03-.02.14-.06.17-.08,1.39.97,5.07,4.19,6,4.74Z"></path>
      <path class="cls-7"
            d="M19.45,46.17c.12.45-.23,8.01-.13,9.3-.08-.06-.14.08-.17.08-.35,0-4.67-4-5.41-4.4l-.04.17c-.29-.11-.89-.35-1.1-.51-.04-.13.07-.16.08-.25,1-.29,5.82-4.89,6.22-4.9.12,0,.52.4.55.51Z"></path>
      <path class="cls-11"
            d="M52.26,47.02c-1.76,1.11-3.22,2.65-4.86,3.89-.03.02.04-.26-.63.25.12-.45.42-.22.17-.76.14.08.35.36.42.21v-9.85l5.41,5.45c-.15.26-.37.53-.51.8Z"></path>
      <path class="cls-6"
            d="M12.68,50.57c-.01.09-.13.12-.08.25-1.72-1.31-3.33-2.75-4.9-4.23-.07-.17-.18-.32-.25-.51,1.11-1.33,4.49-4.21,5.24-5.16-.15,2.47.2,7.89,0,9.64Z"></path>
      <path class="cls-2"
            d="M39.92,56.57c-.49.38-.95.8-1.44,1.18-.52.11-1.36,1.01-1.99,1.44h-.3c-1.82-.87-3.74-1.54-5.5-2.54l-.21-.25c1.27.13,8.95-.35,9.39-.17.08.03.03.25.04.34Z"></path>
      <path class="cls-5"
            d="M19.37,45.75c.07.14.15.31.25.42h-.17c-.03-.11-.43-.51-.55-.51-.4.01-5.21,4.62-6.22,4.9.2-1.75-.15-7.17,0-9.64.02-.02-.05-.18.08-.17,2.18,1.66,4.53,3.19,6.6,4.99Z"></path>
      <path class="cls-20"
            d="M47.36,40.76v9.85c-.08.15-.29-.13-.42-.21-.94-.55-4.62-3.77-6-4.74,2.15-1.56,4.15-3.42,6.3-4.99l.13.08Z"></path>
      <path class="cls-19"
            d="M30.7,56.66c1.76,1,3.68,1.67,5.5,2.54l-6.05,4.65c.04-2.41-.02-4.82-.04-7.23,0-.02.12-.14.17-.13.25.16.4.16.42.17Z"></path>
      <path class="cls-3"
            d="M19.62,46.17c.9,1,9.84,9.82,10.44,10.23,0,0,.08-.11.13-.08,0,0,.08.16.08.17-.05,0-.17.11-.17.13.02,2.42.08,4.82.04,7.23l6.05-4.65h.3c.63-.43,1.47-1.33,1.99-1.44-2.81,2.2-5.71,4.29-8.5,6.51l-16.28-12.94.04-.17c.74.4,5.06,4.4,5.41,4.4.03,0,.09-.14.17-.08-.1-1.29.25-8.85.13-9.3h.17Z"></path>
      <path class="cls-4"
            d="M21.56,57.25c2.62,0,5.18-.48,7.78-.68.26-.02.57-.3.68-.04l-.04,7.48c-2.83-2.23-5.6-4.53-8.41-6.77Z"></path>
      <path class="cls-22"
            d="M29.34,56.57c-2.6.19-5.16.69-7.78.68-.1-.08-1.47-.66-1.06-.93,1.87.12,7.66-.19,8.79.08.06.02.04.11.04.17Z"></path>
      <path class="cls-16"
            d="M46.51,12.01c-1.55.74-4.31,3.63-4.57,5.24-.18.18-.33-.19-.72-.42-.88-.52-1.95-.65-2.96-.42-.58.13-6.57,2.94-8.12,3.47-.06-1.32-.11-2.85.04-4.23,4.18-1.12,8.25-2.82,12.56-3.47,1.28-.19,3.3-.2,3.47-.25.1-.03-.05-.1-.04-.17v-.08c.06.07.31.27.34.34Z"></path>
      <path class="cls-16"
            d="M13.7,11.84c.98-1.22,2.61-2.48,3.64-3.76l-1.73-.21c2.2-1.15,4.46-2.19,6.64-3.38-.35.99-.49,2.78-1.31,3.47-.31.26-6.13,3.43-7.23,3.89Z"></path>
      <path class="cls-1"
            d="M46.17,11.67v.08c-1.12-.35-6.9-3.77-7.23-4.06-.85-.75-1.03-2.38-1.48-3.38,2.24,1.23,4.58,2.29,6.81,3.55l-1.73.13c.93,1.12,2.9,2.82,3.64,3.68Z"></path>
      <path class="cls-16"
            d="M30.19,15.64c-.15,1.38-.11,2.91-.04,4.23,1.55-.53,7.53-3.34,8.12-3.47,1.01-.23,2.08-.1,2.96.42.39.23.54.61.72.42-.07.44,1.24,1.57,1.18,2.11-.82-1.22-1.79-2.74-3.42-2.88-1.8-.15-7.51,2.95-9.56,3.64-.43.01-6.78-2.93-7.99-3.3.51-.18-1-.6-1.9-.51-.66.07-1.68.6-2.11,1.1-.36-.82-.85-1.79-1.4-2.49-1.28-1.66-3.68-2.89-2.45-2.92,5.88.41,10.34,2.02,15.9,3.64Z"></path>
      <path class="cls-14"
            d="M37.46,4.31c.45,1,.63,2.64,1.48,3.38.33.29,6.11,3.71,7.23,4.06,0,.07.14.14.04.17-.17.05-2.19.06-3.47.25-4.31.64-8.38,2.34-12.56,3.47-5.56-1.62-10.02-3.23-15.9-3.64-.23-.02-.43-.12-.68-.08.06-.09.08-.08.08-.08,1.1-.46,6.92-3.63,7.23-3.89.82-.69.97-2.48,1.31-3.47,2.58-1.42,5.1-3.01,7.65-4.48,2.54,1.4,5.02,2.92,7.57,4.31Z"></path>
      <path class="cls-1"
            d="M29.68,15.05c.27.51.33-1.37.34-2.41,0-.46.1-.91-.25-1.23l.3.08,5.54-2.16-5.45,6.22c-.44-.18-.44-.48-.47-.51Z"></path>
      <path class="cls-13"
            d="M29.77,11.42c.36.32.26.77.25,1.23,0,1.04-.07,2.92-.34,2.41-1.73-1.69-3.32-3.54-4.99-5.29.11-.24,4.65,1.52,5.07,1.65Z"></path>
      <path class="cls-18"
            d="M22.16,16.83c1.22.36,7.56,3.31,7.99,3.3,2.04-.68,7.76-3.79,9.56-3.64,1.64.14,2.61,1.66,3.42,2.88,1.13,1.68,1.41,1.76.59,2.11l-3.76-2.11c-3.39,1.33-6.87,5.53-9.81,3.13-.52-.06-1.26,1.07-3.13.68-.96-.2-5.44-3.21-6.93-3.81l-3.76,2.03c-.11.06-.5-.19-.51-.21-.08-.24,2.18-3.56,2.83-4.02,1.2-.85,2.2-.73,3.51-.34Z"></path>
      <path class="cls-1"
            d="M14.29,12.01c-1.22.03,1.17,1.26,2.45,2.92.55.7,1.04,1.67,1.4,2.49.43-.5,1.46-1.03,2.11-1.1.9-.09,2.41.32,1.9.51-1.31-.39-2.31-.51-3.51.34-.65.46-2.91,3.78-2.83,4.02,0,.03.39.27.51.21-.26.17-.15.32-.17.34-.8.82-2.48,3.32-3.38,4.44-.04.26.16.28.17.3l-2.62,4.02c-.77-.17-1.52-.08-.68.13l-1.78.13c1.46-2.06,4.18-4.19,4.99-6.55.16-.46.36-1.6.42-2.11,0-.01.07,0,.17-.13-.52-2.21.57-2.89.42-3.38-.45-1.53-2.26,2.31-1.27,3.34-.5-.03-.07.76-.42,1.18-1.23-2.23-1.74-4.72,0-6.89,1.5-1.87,1.88.38,1.18-4.14.09-.05.25-.12.25-.13.24-.04.44.07.68.08Z"></path>
      <path class="cls-18"
            d="M13.57,15.48c.28-.04,1.84.86,1.82,2.58-.03,2.19-.27.3-.59-.42-1-2.28-2.45-.25-3.3,1.01.1-.82,1.26-3.04,2.07-3.17Z"></path>
      <path class="cls-18"
            d="M13.28,22.07c-.2.18-.52,0-.68-.17-.99-1.03.82-4.87,1.27-3.34.14.49-.95,1.17-.42,3.38-.1.13-.17.12-.17.13Z"></path>
      <path class="cls-1"
            d="M47.61,23.42c-.03-.53.33-1.71,0-2.03.33-.98-.47-3.34-1.23-3.13-.94.26.87,1.34.21,3.59.06.06.16.23.17.3.09.9.17,1.62.51,2.45.6,1.5,3.71,4.65,4.9,6.13.02.21-1-.03-1.18-.04l.47-.17c-.66.08-1.14-.14-1.82-.13-.31-.49-2.22-3.81-2.41-3.93-.03-.02-.13,0-.21,0,.03-.04.17-.2.17-.21.02-.28-2.97-4.07-3.38-4.52-.03-.03.07-.25-.08-.25.82-.35.54-.43-.59-2.11.06-.54-1.25-1.68-1.18-2.11.25-1.61,3.01-4.51,4.57-5.24l-.34,2.92c2.35.98,3.14,4.12,2.54,6.43-.18.7-.85,1.5-1.1,2.07Z"></path>
      <path class="cls-18"
            d="M46.13,15.39c1.23.49,2.05,1.86,2.28,3.13-1.2-1.94-2.81-3.09-3.59-.13h-.17c-.14-1.71.33-1.98,1.48-3Z"></path>
      <path class="cls-18"
            d="M47.61,21.4c-.08.24-.55.77-.85.76,0-.06-.11-.23-.17-.3.66-2.25-1.15-3.33-.21-3.59.75-.21,1.55,2.15,1.23,3.13Z"></path>
      <path class="cls-1"
            d="M17.67,25.54c.52.93,3.65,4,3.72,4.27.08.32-.42,1.52-.3,1.56,2.59-2.04,5.71-7.07,8.79-4.06.43.08,1.62-1.32,3.3-.85,1.13.32,4.61,3.96,5.75,4.9l-.38-1.65c.91-.54,3.41-3.98,3.81-4.19.08-.04.15-.11.25-.08.03,0,.06,0,.08,0l1.1,6.3-2.49.3c-.22.16-.1.63-.13,1.1-.11,1.96.05,3.96.04,5.92.65-.89,3.36-3.93,3.59-4.4.05-.1.19-.18.25-.63.48-2.45-.72-4.08,1.73-.8.06-.04-.03-1.09-.04-1.27-.08-1.67-.33-3.33-.42-4.99.11-.13.29-.29.42-.42,0,0,.19,0,.25-.08.08,0,.18-.02.21,0,.2.12,2.1,3.44,2.41,3.93.68,0,1.16.21,1.82.13l-.47.17c-.19,0-1.04-.14-1.1.04.49.87.78,1.84,1.18,2.75.4.92.71.8.42,1.18-.08-.11-.17-.2-.21-.34-1.38,1.95-2.58,4.15-3.93,6.17-1.37,1.02-5.33,3.83-6.3,4.74-.42.39-.27.49-.3.51-.03.02-.66.1-.42.42-.03.03-.06.06-.08.08-.07,0-.17-.02-.21,0-.47.18-6.08,6.25-7.06,7.19-.35.33-2.8,2.71-3,2.71-3.36-2.94-7.43-7.63-10.61-10.4-2.07-1.8-4.41-3.33-6.6-4.99-1.35-2.25-2.74-4.49-3.89-6.85-.01-.02.02-.09-.08-.08.2-.29.88-2.4,1.35-3.09.03-.24-.3-.07-.51-.13-.84-.21-.1-.3.68-.13l2.62-4.02s.22.14.25.17c.1.1.25.14.34.25l-.42,6.13,1.61-1.73c.16,1.12.05,2.28.34,3.38,1.2,1.55,2.55,2.97,3.68,4.57.03-2.03.11-4.07.04-6.09,0-.05.26-.77-.04-1.01l-2.58-.21,1.18-6.38.08-.08.25.08Z"></path>
      <path class="cls-18"
            d="M37.46,44.31c.25-.88.64-1.79.63-2.71-.1,0-.2.01-.3,0-5.17-.78-10.48-.59-15.64,0-.3.17.25,2.18.34,2.54.04.17.42,1.3.3,1.35-.75-1.56-1.48-3.12-1.86-4.82,1.55.36,3.56-.34,5.33-.51,3.18-.3,6.31-.12,9.47.25,1.09.13,2.21.65,3.3.25.21.15-1.59,4.65-1.73,4.86-.32.5.11-1.03.17-1.23Z"></path>
      <path class="cls-14"
            d="M37.46,44.31c-.96.75-1.55,1.89-2.24,2.88l.68-2.54-3.51,3.68c1.85-3.38,1.8-4.75,5.41-6.72.09.01.2,0,.3,0,0,.92-.39,1.82-.63,2.71Z"></path>
      <path class="cls-14"
            d="M22.49,44.14c-.09-.36-.64-2.37-.34-2.54,3.65,1.67,3.41,3.51,5.33,6.55l-3.59-3.68.93,2.71-2.33-3.04Z"></path>
      <path class="cls-1"
            d="M32.98,53.45v.08c-.94.91-1.8,1.92-2.79,2.79-.04-.03-.12.09-.13.08-.6-.42-9.55-9.23-10.44-10.23-.11-.12-.19-.28-.25-.42,3.18,2.77,7.25,7.46,10.61,10.4.2,0,2.65-2.37,3-2.71Z"></path>
      <path class="cls-12"
            d="M40.25,46.26c-2.44,2.41-4.81,4.88-7.27,7.27v-.08c.98-.94,6.59-7,7.06-7.19.05-.02.14,0,.21,0Z"></path>
      <path class="cls-12" d="M40.76,45.75c-.14.13-.28.28-.42.42-.23-.32.39-.4.42-.42Z"></path>
      <path class="cls-18"
            d="M27.78,26.47c.62,0,1.6.66,2.11,1.01.44.06,1.65-1.12,2.88-.93,1.09.17,3.71,3.28,4.19,4.52.47,1.22.05,1.86,1.86,4.48,1.06,6.86.5,3.73-7.74,3.51-1.81-.05-3.7.06-5.5.25-3.24.34-4.79,1.64-4.78-.63,0-.19.37-2.86.42-3.04.25-.85,1.06-1.59,1.27-2.11.22-.55.24-1.41.34-1.69.56-1.53,3.2-5.39,4.95-5.37Z"></path>
      <path class="cls-1"
            d="M33.62,30.36c.99-.02.94,1.19.34,1.69-.24.2-2.68,1.04-3.47,1.95-.18-.03-.15-1.46-.13-1.65.2-1.38,2.81-1.98,3.26-1.99Z"></path>
      <path class="cls-1"
            d="M26.09,30.36c.38-.1,2.92.71,3.26,1.14.44.57.22,1.79.21,2.49-.51-.72-3.4-1.84-3.59-2.07-.31-.36-.35-1.44.13-1.56Z"></path>
      <path class="cls-1"
            d="M32.77,28.33c2.6-.15,5.02,3.68.76,5.67l1.73-1.82c.94-2.38-1.51-5.35-5.2-2.41-4.47-3.47-7.81,1.48-3.59,4.1-4.83-1.85-1.23-7.98,3.59-4.27.74-.48,1.81-1.22,2.71-1.27Z"></path>
      <path class="cls-10"
            d="M27.19,27.4c1.04-.05,1.97.45,2.79,1.01.64-.25,1.26-.78,1.95-.93,1.78-.38,1.83-.1-.51.34-2.07,1.41-1.37.18-4.23-.42Z"></path>
      <path class="cls-1"
            d="M26.05,26.13c-1.61.41-3.08,1.57-2.11.72l-.13-.21c-2.42-1.35-3.21-3.01-2.45-.93-.07.02-.5-.73-.55-.85l-.13-.68c.09.47.79.32,1.27.85,1.49.26,2.8.27,4.1,1.1Z"></path>
      <path class="cls-16"
            d="M34.5,26.38s-.04.03-.08-.08c-.03-.07-.11-.28-.04-.34,1.19-.68,1.61-.51,2.71-.68.33-.05,1.62-.61.76.08-.1.08-1.99,1.34-2.11,1.35-.52.06-1.28-.76-1.23-.34Z"></path>
      <path class="cls-1"
            d="M26.89,25.96c-1.34.96-2.77,1.76-3.85,3.04-.36.07.78-1.04.93-1.18.64-.61,1.41-1.1,2.07-1.69.14-.04.06-.15.13-.17.04,0,.04.07.72,0Z"></path>
      <path class="cls-1"
            d="M43.72,21.48c.15,0,.06.22.08.25-.35-.64-.93,2.61-1.18,3.72-.11-.02-.17.04-.25.08.54-.44-1.91-1.79-2.83-2.54.14,2.03-1.78,3.75-.63,1.73-.31.37-2.76,1.83-2.83,1.99-.13.28.37.24.34.51-.43-.29-1.66-.6-1.9-.85-.05-.42.71.39,1.23.34.12-.01,2.02-1.27,2.11-1.35.85-.7-.43-.13-.76-.08-1.09.17-1.52,0-2.71.68-.06.06.01.27.04.34-.93-.33.82.83,1.65,1.61,1.62,1.53-.15.03-.76-.42-1.88-1.4-3.07-2.3-5.24-.68-1.18-.83-1.77-.98-3.17-.85-.68.07-.68,0-.72,0-.07.02.01.13-.13.17-1.3-.83-2.61-.84-4.1-1.1-.48-.53-1.18-.38-1.27-.85l.13.68c-.42-.87-.38-.88-.3-1.95-.97.84-2.11,1.48-3,2.41.08.06.12.13.17.21l-.25-.08c-.38-1.07-.8-4.04-1.27-3.72.02-.02-.09-.17.17-.34l3.76-2.03c1.49.6,5.97,3.6,6.93,3.81,1.86.39,2.61-.74,3.13-.68,2.94,2.4,6.42-1.8,9.81-3.13l3.76,2.11Z"></path>
      <path class="cls-15" d="M22.88,22.33c.31,0-.08.51-.04.89.15,1.65,2.52.2,2.2,1.1-.23.65-4.28.32-2.16-1.99Z"></path>
      <path class="cls-15" d="M37.08,22.33c2.25,2.05-1.76,2.83-1.99,1.99-.27-1.01,2.57,1.13,1.99-1.99Z"></path>
      <path class="cls-15" d="M36.41,22.66c.6.18-.66,1.17-.8.63-.03-.11.75-.65.8-.63Z"></path>
      <path class="cls-15" d="M23.64,22.66s.85.51.8.63c-.19.43-1.18-.36-.8-.63Z"></path>
    </g>
  </g>
</svg>